<svg xmlns="http://www.w3.org/2000/svg" viewBox="0 0 228.5 210.67"><defs><style>.cls-1{fill:#fff;}.cls-2{fill:#706f6f;}</style></defs><g id="Capa_3" data-name="Capa 3"><path class="cls-1" d="M118.51,171.53h0l-2.2-.64a77.87,77.87,0,0,1-56-74.73V41.61l3.31-.71a254.21,254.21,0,0,1,109.57.71h0V97.19A77.87,77.87,0,0,1,118.51,171.53Z"/><path class="cls-2" d="M117.15,53.14a18.15,18.15,0,0,0,3.63,5.62c2.11,1.89,4.7,4.59,4.7,4.59l.85-2.63s4.16,4.94,5,9.32l2.26-1.49s3.52,8.55,2.76,11.77l2.16-.67s1.06,9.36-.55,11.5l2.86-.08s-1.36,7.52-4.22,11.14l2.48.48s-4.1,8.57-11.32,12.41-7.49,1.56-7.49,1.56,5.21-24.21,0-50a239.38,239.38,0,0,1,.88,27.76c-.3,8.46-2.62,16-2.55,21.94a68.59,68.59,0,0,0,.83,11.85c.1.74-2.71,2.83-3.17.74-.69-3.13.39-10.77-1.45-12.28-3-2.52-12.13-3.33-16.24-13.3l2.4-.9a59.8,59.8,0,0,1-5-11.45l3.22.49a21.85,21.85,0,0,1-.68-12.14l2.61,1.47s-1.45-4,2.68-11.43l2,1.57s-.55-4,4.09-9.68l1.29,1.88A13.5,13.5,0,0,1,117.15,53.14Z"/><path class="cls-2" d="M164.09,105.18a23,23,0,0,1-1.16,3,20.65,20.65,0,0,1-1.52,2.82,29.87,29.87,0,0,1-2,2.46c-.11.13-.23.24-.35.36l-.6-.41a6.41,6.41,0,0,0-5.64-.8c.22-.39.44-.78.65-1.18a6.39,6.39,0,0,0,3.95-7.83l-.3-1,.16-.29a22.25,22.25,0,0,0,1.34-3.51c.37-1.19.72-2.39,1-3.61s.49-2.44.67-3.67l-.09,0a55.16,55.16,0,0,1-2.27,7c-.47,1.14-1,2.23-1.49,3.37l-.32.8-.25.08a6.41,6.41,0,0,0-4.33,8l.08.25-.6,1.09a6.39,6.39,0,0,0-2.76-4.89l-1-.71-.35.51c0-.7-.09-1.4-.12-2.11s-.05-1.54,0-2.3a8.21,8.21,0,0,1,.28-2.27l-.08,0a8.15,8.15,0,0,0-.66,2.26c-.11.78-.18,1.56-.24,2.34a14.23,14.23,0,0,0-.06,2.35q.06.5.15,1a6.4,6.4,0,0,0,2.08,8.21l.22.16c-.33.54-.66,1-1,1.57a6.38,6.38,0,0,0-2.84-5l-1.38-.91-.91,1.37a6.4,6.4,0,0,0,1.79,8.88l.26.17c-.42.59-.85,1.15-1.28,1.72a6.37,6.37,0,0,0-2.42-4.87l-1-.78-.77,1a6.4,6.4,0,0,0,.88,8.85c-.41.49-.82,1-1.23,1.43a6.4,6.4,0,0,0-2.47-4.88l-1.31-1-1,1.3a6.42,6.42,0,0,0,.92,8.82l-1.56,1.58a6.43,6.43,0,0,0-2.05-5.67l-1.23-1.1-1.11,1.23a6.4,6.4,0,0,0,.48,9l.09.08L127.51,141a6.38,6.38,0,0,0-1-5.52l-.74-1-1,.74a6.41,6.41,0,0,0-1.35,9l.07.09c-13.91,10.68-25.87,14.2-26.07,14.26l.5,1.77c.21-.06,12.55-3.67,26.84-14.68l0,.05a6.41,6.41,0,0,0,9,1.36l1.33-1-1.65-2.24a5.24,5.24,0,0,0-3.89-2.11c.37-.32.74-.66,1.11-1l1.38,1.24a5.28,5.28,0,0,0,7.45-.39l1.86-2.07-1.23-1.1a6.36,6.36,0,0,0-5.35-1.55c.45-.46.91-.91,1.36-1.38l.87.68a6.41,6.41,0,0,0,9-1.13l1-1.3-1.3-1a6.36,6.36,0,0,0-6.16-.94c.61-.71,1.22-1.41,1.83-2.15l.32.25a6.4,6.4,0,0,0,9-1.05l1-1.29-1.29-1a6.37,6.37,0,0,0-5.7-1.13l1.17-1.59.44.29a6.4,6.4,0,0,0,8.88-1.79l.92-1.37-1.38-.92a6.43,6.43,0,0,0-5.86-.63c.41-.62.81-1.25,1.21-1.9a6.38,6.38,0,0,0,8.83-1.7l.94-1.36h0c.09-.08.19-.15.27-.23A11,11,0,0,0,162,111.4a20.75,20.75,0,0,0,2.14-6.2Z"/><path class="cls-2" d="M136.77,158.51c-.2-.06-12.16-3.58-26.06-14.26l.07-.09a6.41,6.41,0,0,0-1.35-9l-1-.74-.75,1a6.41,6.41,0,0,0-1,5.52c-.59-.51-1.18-1-1.77-1.55l.08-.08a6.39,6.39,0,0,0,.48-9l-1.1-1.23-1.23,1.1a6.41,6.41,0,0,0-2.06,5.67l-1.56-1.58a6.4,6.4,0,0,0,.92-8.82l-1-1.3-1.3,1A6.4,6.4,0,0,0,95.64,130c-.42-.47-.83-.94-1.24-1.43a6.39,6.39,0,0,0,.89-8.85l-.78-1-1,.78a6.42,6.42,0,0,0-2.43,4.87c-.43-.57-.85-1.13-1.27-1.72l.25-.17a6.41,6.41,0,0,0,1.8-8.88L91,112.28l-1.37.91a6.39,6.39,0,0,0-2.85,5c-.33-.52-.67-1-1-1.57l.23-.16A6.4,6.4,0,0,0,88,108.21a8.46,8.46,0,0,0,.15-1,12.33,12.33,0,0,0-.06-2.35q-.07-1.17-.24-2.34a8.13,8.13,0,0,0-.65-2.26l-.09,0a7.52,7.52,0,0,1,.28,2.27c0,.76,0,1.53,0,2.3s-.14,1.41-.13,2.11l-.35-.51-1,.71a6.41,6.41,0,0,0-2.77,4.89c-.2-.36-.4-.72-.59-1.09l.07-.25a6.4,6.4,0,0,0-4.32-8L78,102.7c-.1-.27-.21-.53-.32-.8-.45-1.14-1-2.23-1.48-3.37a56.83,56.83,0,0,1-2.28-7l-.09,0c.19,1.23.39,2.46.67,3.67s.63,2.42,1,3.61a21.32,21.32,0,0,0,1.34,3.51l.16.29-.31,1a6.4,6.4,0,0,0,4,7.83l.65,1.18a6.39,6.39,0,0,0-5.63.8l-.61.41c-.11-.12-.23-.23-.34-.36a29.87,29.87,0,0,1-2-2.46,20.7,20.7,0,0,1-1.53-2.82,21.58,21.58,0,0,1-1.15-3l-.09,0a21,21,0,0,0,2.13,6.2,11.25,11.25,0,0,0,1.94,2.72l.27.23h0l.93,1.36a6.4,6.4,0,0,0,8.84,1.7c.39.65.8,1.28,1.2,1.9a6.43,6.43,0,0,0-5.86.63l-1.37.92.91,1.37A6.4,6.4,0,0,0,87.86,124l.45-.29c.38.54.77,1.06,1.17,1.59a6.36,6.36,0,0,0-5.7,1.13l-1.3,1,1,1.29a6.4,6.4,0,0,0,9,1.05l.31-.25c.61.74,1.22,1.44,1.84,2.15a6.36,6.36,0,0,0-6.16.94l-1.31,1,1,1.3a6.41,6.41,0,0,0,9,1.13l.87-.68,1.35,1.38a6.36,6.36,0,0,0-5.35,1.55l-1.22,1.1,1.86,2.07a5.28,5.28,0,0,0,7.45.39l1.37-1.24c.37.34.75.68,1.12,1a5.2,5.2,0,0,0-3.89,2.11L99.1,146l1.33,1a6.41,6.41,0,0,0,9-1.36l0-.05c14.29,11,26.64,14.62,26.84,14.68Z"/><path class="cls-2" d="M118.54,175.19l-3.21-.94A81.37,81.37,0,0,1,56.84,96.16V38.78l6.08-1.3A259.38,259.38,0,0,1,174,38.2l2.73.62V97.19a81,81,0,0,1-57.17,77.69ZM63.84,44.44V96.16a74.76,74.76,0,0,0,53.46,71.37l1.17.34a74,74,0,0,0,51.25-70.68V44.42a252.7,252.7,0,0,0-105.34-.1Z"/></g></svg>