<svg xmlns="http://www.w3.org/2000/svg" xmlns:xlink="http://www.w3.org/1999/xlink" viewBox="0 0 1446.5 438.11"><defs><style>.cls-1{fill:#fff;}.cls-2{fill:url(#Degradado_sin_nombre_14);}.cls-3{fill:url(#Degradado_sin_nombre_14-2);}.cls-4{fill:url(#Degradado_sin_nombre_14-3);}.cls-5{fill:url(#Degradado_sin_nombre_14-4);}.cls-6{fill:url(#Degradado_sin_nombre_14-5);}.cls-7{fill:url(#Degradado_sin_nombre_14-6);}.cls-8{fill:url(#Degradado_sin_nombre_8);}</style><linearGradient id="Degradado_sin_nombre_14" x1="1148.77" y1="284.1" x2="1148.77" y2="146.24" gradientUnits="userSpaceOnUse"><stop offset="0" stop-color="#312783"/><stop offset="1" stop-color="#2472b8"/></linearGradient><linearGradient id="Degradado_sin_nombre_14-2" x1="847.05" y1="290.92" x2="847.05" y2="185.86" xlink:href="#Degradado_sin_nombre_14"/><linearGradient id="Degradado_sin_nombre_14-3" x1="999.73" y1="290.36" x2="999.73" y2="186.07" xlink:href="#Degradado_sin_nombre_14"/><linearGradient id="Degradado_sin_nombre_14-4" x1="588.98" y1="290.6" x2="588.98" y2="186.21" xlink:href="#Degradado_sin_nombre_14"/><linearGradient id="Degradado_sin_nombre_14-5" x1="440.63" y1="284.36" x2="440.63" y2="186.45" xlink:href="#Degradado_sin_nombre_14"/><linearGradient id="Degradado_sin_nombre_14-6" x1="720.44" y1="290.36" x2="720.44" y2="146.24" xlink:href="#Degradado_sin_nombre_14"/><linearGradient id="Degradado_sin_nombre_8" x1="287.31" y1="376.84" x2="287.31" y2="146.49" gradientUnits="userSpaceOnUse"><stop offset="0" stop-color="#761611"/><stop offset="1" stop-color="#e10b14"/></linearGradient></defs><g id="Capa_3" data-name="Capa 3"><path class="cls-1" d="M1238.27,194.13a42.36,42.36,0,0,0-34.65-17.67h-13.37a88.22,88.22,0,0,0-26.2,4L1179,134.79l-82.24,8.1-15,45.8c-3.8-2.56-21.2-12.62-60.28-12.62-29,0-67.13,9.6-89.61,29.7l6.47-19.61L929,183c-15.8-5.35-49-7.92-69-6.87s-38.84,5.23-53.41,11.51c-7.61,3.11-17.26,8.26-23.46,16a26.72,26.72,0,0,0-5.7,11c-9,24.44-17,26.38-21,16.56-2.81-6.92,6.17-36,6.17-36l-.15,0,19.73-60.39-82.24,8.1-25.63,78.4c-4.1-13-13.93-24.26-28.52-32.48-17.07-9.63-38.94-14-61.55-12.22s-43.56,9.39-59,21.53c-1.43,1.12-2.79,2.28-4.1,3.46l4.65-14.28-7.41-3.94a59.3,59.3,0,0,0-53.77-.93H399.35L407,158.8l-5.64-4.3c-2.41-1.85-25.27-18-83.45-18-60,0-148.67,30-148.67,94.55,0,27.9,15.48,49.62,44.76,62.79,20.91,9.41,44.32,12.33,56.41,13.23q4,.3,8.58.3l-4.54,13.94-1.69,5.32,0,.1c-.48,1.24-.94,2.53-1.41,3.84-4.19,11.66-5.85,12.82-10.61,12.42-.35,0-.66-.07-.91-.11a57.13,57.13,0,0,1,1.8-7.61c.22-.77.44-1.54.64-2.3l3.47-12.64H227.45l-2.31,6.76c-.26.77-.58,1.63-.92,2.57-3.39,9.24-9.7,26.43.16,40.55,7.81,11.19,23.13,16.63,46.82,16.63,21.58,0,61.75,0,79.05-53.43,1.07-3.32,7.12-22.15,7.13-22.17l5.5-16.87h70.53l17.11-52.58a39.09,39.09,0,0,1,45-1.9l6.06,3.9c0,.45.05.91.08,1.37,1.34,17.28,12.19,32.5,30.55,42.85,14.61,8.23,32.71,12.6,51.79,12.6,3.23,0,6.5-.13,9.77-.38,22.62-1.75,43.56-9.39,59-21.53a74.79,74.79,0,0,0,11-10.65,33.22,33.22,0,0,0,9.32,16.75c14.91,14.82,40.63,15.57,45.64,15.57a66.15,66.15,0,0,0,44.39-17.43l.09.05c15.35,9.25,36.41,15.4,59.29,17.32,4.93.41,9.82.62,14.62.62,16.53,0,32-2.42,44.74-7.06,18.91-6.92,29.95-18.21,31.09-31.81,0-.38.06-.77.07-1.17,0,0,0-.05,0-.07v0c0-.74,0-1.51,0-2.32.13-3.71,1.1-2.76,1.46-1.6,0,.13.07.26.1.39v0a9.61,9.61,0,0,0,1.1,3.6c6.66,18.92,28.3,39.48,90.86,39.48,23.31,0,40.14-4.95,44.2-6.26h76.19l16.67-51,.31-.72c5.38-12.31,12.09-17.53,14.3-17.86,1.76,1.63,4.31,10.33,1.09,24.38l-14.56,45.22h79.56l12.6-38.65c.17-.51.31-1,.45-1.52l7-21.39A42.32,42.32,0,0,0,1238.27,194.13Z"/><path class="cls-2" d="M1203.62,186.46h-13.37a78.19,78.19,0,0,0-42.87,12.81l17.33-53-60.51,6-43.11,131.9h58.58l14.94-45.75h.13c7-16.08,18.13-26.22,26.62-23.39,8.78,2.92,11.79,18.66,7.57,36.59l-10.47,32.55H1217l10.36-31.75c.16-.49.28-1,.42-1.47l7-21.44A32.8,32.8,0,0,0,1203.62,186.46Z"/><path class="cls-3" d="M898.77,204.84A112.58,112.58,0,0,1,920.29,209l5.45-16.5c-13.77-4.67-45.25-7.42-65.26-6.37-42,2.2-74.85,18.59-73.64,34.29.58,7.57,11.14,15.1,26.09,20,13.48,4.46,22.49,10.78,21.77,16.64-1,8.15-15.64,14.93-37.8,8.7-9.78-2.75-22.63-9.54-22.63-9.54l-5.9,18.21c13.4,8.08,32.91,14.07,55,15.91,42.34,3.55,78-9.49,79.65-29.12.63-7.54-3.87-15-12-21.44l0,0c-15.34-12.44-33.52-15.43-32.52-23.54S877.13,202.18,898.77,204.84Z"/><path class="cls-4" d="M982.23,239.7c0-22.93,34.07-29.87,57.49-29.87,13.77,0,23.75,3.49,31,5.43l5.75-18.09s-14.84-11.1-55-11.1S923,205.59,923,244.87s50.54,45.49,83.51,45.49c24.89,0,41.79-6,41.79-6l5.87-18s-6.39,1-22.87,1C1010,267.36,982.23,262.63,982.23,239.7Z"/><path class="cls-5" d="M585,186.56c-42.73,3.3-75.58,29.19-73.37,57.82s38.65,49.17,81.37,45.87,75.58-29.19,73.36-57.82S627.7,183.26,585,186.56ZM606,245.43c-6.64,20.34-20.09,34.19-30,30.94s-12.63-22.37-6-42.7,20.09-34.19,30-30.94S612.68,225.1,606,245.43Z"/><path class="cls-6" d="M490.64,186.45a49,49,0,0,0-38.82,19l4.23-13H397.48l-29.9,91.93h58.57l15.76-48.44a49.1,49.1,0,0,1,59-4.45l12.78-39.29A49,49,0,0,0,490.64,186.45Z"/><path class="cls-7" d="M767.88,146.24l-60.5,6L674.15,253.87a23.05,23.05,0,0,0-1,9.94h0v.05a23.25,23.25,0,0,0,6.91,13.8c11.22,11.19,32.31,12.7,38.64,12.7A56,56,0,0,0,756,275.88l5.85-18h-8.14a16.07,16.07,0,0,1-15.32-21.42Z"/><path class="cls-8" d="M367.78,247.06a20.3,20.3,0,0,0-19.3-26.58H299.89l-5.87,18H312a23.09,23.09,0,0,1-35.5,11.63c-7.94-5.81-13.8-14.27-13.8-26.51,0-33,48-49.36,81-49.36a175.06,175.06,0,0,1,45.85,6.19l5.85-18s-20.9-16-77.38-16S179.28,174.55,179.28,231s73,64.64,91.92,66a137.77,137.77,0,0,0,21.82-.4l-9,27.71h.09c-1,3-1.76,5.28-2,5.92-3.91,10.14-6.8,23.95-22.21,22.62-14.4-1.25-10-12.75-7.25-22.62h-18c-4.18,12.24-21,46.52,36.6,46.52,22.83,0,54.66-.56,69.53-46.52,1.08-3.32,7.14-22.19,7.14-22.19h0l7.74-23.75.07,0,9.94-30.56h0Z"/></g></svg>